<?xml version="1.0" encoding="UTF-8" standalone="no"?>
<!-- Generator: Adobe Illustrator 18.0.0, SVG Export Plug-In . SVG Version: 6.00 Build 0)  -->

<svg
   xmlns:dc="http://purl.org/dc/elements/1.1/"
   xmlns:cc="http://creativecommons.org/ns#"
   xmlns:rdf="http://www.w3.org/1999/02/22-rdf-syntax-ns#"
   xmlns:svg="http://www.w3.org/2000/svg"
   xmlns="http://www.w3.org/2000/svg"
   xmlns:sodipodi="http://sodipodi.sourceforge.net/DTD/sodipodi-0.dtd"
   xmlns:inkscape="http://www.inkscape.org/namespaces/inkscape"
   version="1.1"
   x="0px"
   y="0px"
   viewBox="0 0 79 76"
   enable-background="new 0 0 32 32"
   xml:space="preserve"
   id="svg2"
   inkscape:version="0.91 r13725"
   sodipodi:docname="isometric_vol_up.svg"
   width="79"
   height="76"
   inkscape:export-filename="/home/trobanga/Workspace/projects/audioOne/img/isometric_vol_up.png"
   inkscape:export-xdpi="90"
   inkscape:export-ydpi="90"><defs
     id="defs24" /><sodipodi:namedview
     pagecolor="#ffffff"
     bordercolor="#666666"
     borderopacity="1"
     objecttolerance="10"
     gridtolerance="10"
     guidetolerance="10"
     inkscape:pageopacity="0"
     inkscape:pageshadow="2"
     inkscape:window-width="1244"
     inkscape:window-height="769"
     id="namedview22"
     showgrid="false"
     inkscape:zoom="2.6074563"
     inkscape:cx="-75.460135"
     inkscape:cy="27.282178"
     inkscape:window-x="329"
     inkscape:window-y="293"
     inkscape:window-maximized="0"
     inkscape:current-layer="svg2" /><title
     property="dc:title"
     id="title4">to sound</title><desc
     property="dc:description"
     id="desc6">An icon for &quot;sound&quot; from the Isometric series on to [icon]. Downloaded from http://www.toicon.com/icons/isometric_sound by 198.23.103.67 on 2015-04-03. Licensed CC-BY, see http://toicon.com/license/ for details.</desc><g
     id="LABELS"
     transform="translate(0,44)" /><g
     id="DESIGNS"
     transform="matrix(2.299713,0,0,2.299713,4.3998858,0.2614817)"><g
       id="g10"><path
         d="M 24.18,8.22 C 22.986,6.094 21.329,5.042 19.662,5.083 18.726,5.106 17.786,5.472 16.923,6.186 16.441,6.584 11.04,11.663 9.192,13.468 8.274,11.538 6.693,11.583 5.765,13.181 c -0.909,1.567 -0.914,4.1 -0.01,5.657 0.978,1.686 2.656,1.565 3.527,-0.532 l 6.692,6.654 c 2.475,3.025 5.939,2.611 8.171,-1.232 C 26.633,19.44 26.592,12.515 24.18,8.22 Z"
         id="path12"
         inkscape:connector-curvature="0"
         style="fill:#ff7344" /><path
         d="m 24.18,8.22 c -2.352,-4.19 -6.504,-4.206 -8.993,0.081 -2.489,4.287 -2.501,11.215 -0.028,15.475 2.473,4.26 6.496,4.238 8.985,-0.049 C 26.633,19.44 26.592,12.515 24.18,8.22 Z m -1.211,13.482 c -1.836,3.161 -4.802,3.177 -6.626,0.036 -1.882,-3.242 -1.72,-8.415 0.021,-11.413 1.836,-3.162 4.802,-3.178 6.626,-0.036 1.75,3.015 1.836,8.215 -0.021,11.413 z"
         id="path14"
         inkscape:connector-curvature="0"
         style="fill:#f29227" /><g
         id="g16"><path
           d="m 16.343,21.736 c 1.824,3.143 4.791,3.127 6.626,-0.036 1.008,-1.736 1.444,-4.056 1.35,-6.319 -2.605,-1.641 -5.541,-2.803 -8.689,-3.368 -1.039,3.093 -0.815,7.092 0.713,9.723 z"
           id="path18"
           inkscape:connector-curvature="0"
           style="fill:#f05a28" /></g></g></g><metadata
     id="metadata20"><work
       rdf:about=""><format>image/svg+xml</format><type
         rdf:resource="http://purl.org/dc/dcmitype/StillImage" /><license
         rdf:resource="http://creativecommons.org/licenses/by/4.0/" /><attributionname>Jo Szczepanska</attributionname><attributionurl>http://www.toicon.com/icons/isometric_sound</attributionurl></work><rdf:RDF><cc:Work
         rdf:about=""><dc:format>image/svg+xml</dc:format><dc:type
           rdf:resource="http://purl.org/dc/dcmitype/StillImage" /><dc:title>to sound</dc:title></cc:Work></rdf:RDF></metadata></svg>