<?xml version="1.0" encoding="UTF-8" standalone="no"?>
<!-- Generator: Adobe Illustrator 18.0.0, SVG Export Plug-In . SVG Version: 6.00 Build 0)  -->

<svg
   xmlns:dc="http://purl.org/dc/elements/1.1/"
   xmlns:cc="http://creativecommons.org/ns#"
   xmlns:rdf="http://www.w3.org/1999/02/22-rdf-syntax-ns#"
   xmlns:svg="http://www.w3.org/2000/svg"
   xmlns="http://www.w3.org/2000/svg"
   xmlns:sodipodi="http://sodipodi.sourceforge.net/DTD/sodipodi-0.dtd"
   xmlns:inkscape="http://www.inkscape.org/namespaces/inkscape"
   version="1.1"
   x="0px"
   y="0px"
   viewBox="0 0 79 76"
   enable-background="new 0 0 32 32"
   xml:space="preserve"
   id="svg2"
   inkscape:version="0.91 r13725"
   sodipodi:docname="isometric_play.svg"
   width="79"
   height="76"
   inkscape:export-filename="/home/trobanga/Workspace/projects/audioOne/img/isometric_play.png"
   inkscape:export-xdpi="90"
   inkscape:export-ydpi="90"><defs
     id="defs52" /><sodipodi:namedview
     pagecolor="#ffffff"
     bordercolor="#666666"
     borderopacity="1"
     objecttolerance="10"
     gridtolerance="10"
     guidetolerance="10"
     inkscape:pageopacity="0"
     inkscape:pageshadow="2"
     inkscape:window-width="1228"
     inkscape:window-height="699"
     id="namedview50"
     showgrid="false"
     inkscape:zoom="2.6074563"
     inkscape:cx="-39.703544"
     inkscape:cy="46.041138"
     inkscape:window-x="404"
     inkscape:window-y="316"
     inkscape:window-maximized="0"
     inkscape:current-layer="svg2" /><title
     property="dc:title"
     id="title4">to play</title><desc
     property="dc:description"
     id="desc6">An icon for &quot;play&quot; from the Isometric series on to [icon]. Downloaded from http://www.toicon.com/icons/isometric_play by 198.23.103.67 on 2015-04-03. Licensed CC-BY, see http://toicon.com/license/ for details.</desc><g
     id="LABELS"
     transform="translate(0,44)" /><g
     id="DESIGNS"
     transform="matrix(2.3460704,0,0,2.3460704,6.9706924,1.2197907)"><g
       id="g10"><polygon
         points="8.05,18.558 16.05,23.176 16.05,26.938 8.05,22.319 "
         id="polygon12"
         style="fill:#f8f7c5" /><polygon
         points="24,18.558 16.05,23.176 16.05,26.938 24,22.319 "
         id="polygon14"
         style="fill:#ad9a74" /><path
         d="m 16.981,14.46 c -0.855,0.373 -1.429,0.623 -2.104,0.918 l -3.467,1.455 c -0.151,0.033 -0.311,0.059 -0.464,0.066 l 0,0 -2.896,1.659 8,4.619 L 24,18.558 16.981,14.46 Z"
         id="path16"
         inkscape:connector-curvature="0"
         style="fill:#f2d76c" /><g
         id="g18"><path
           d="m 19.354,20.283 c -1.954,1.128 -5.132,1.122 -7.098,-0.013 -0.929,-0.536 -1.406,-1.23 -1.46,-1.93 -0.002,0.173 0,0.351 0.004,0.411 0.041,0.709 0.517,1.41 1.457,1.953 1.966,1.135 5.144,1.141 7.098,0.013 0.914,-0.528 1.383,-1.21 1.433,-1.903 0.005,-0.074 0.007,-0.278 0.005,-0.45 -0.049,0.698 -0.518,1.387 -1.439,1.919 z"
           id="path20"
           inkscape:connector-curvature="0"
           style="fill:#72c0ab" /></g><g
         id="g22"><path
           d="m 19.354,20.283 c -1.954,1.128 -5.132,1.122 -7.098,-0.013 -0.929,-0.536 -1.406,-1.23 -1.46,-1.93 -0.002,0.173 0,0.351 0.004,0.411 0.041,0.709 0.517,1.41 1.457,1.953 1.966,1.135 5.144,1.141 7.098,0.013 0.914,-0.528 1.383,-1.21 1.433,-1.903 0.005,-0.074 0.007,-0.278 0.005,-0.45 -0.049,0.698 -0.518,1.387 -1.439,1.919 z"
           id="path24"
           inkscape:connector-curvature="0"
           style="fill:#72c0ab" /></g><g
         id="g26"><path
           d="m 21.754,18.557 c -0.124,-0.072 -0.187,-0.166 -0.188,-0.26 l 0,0.264 0.001,0 c -0.003,0.097 0.058,0.194 0.186,0.268 0.352,0.204 1.101,0.091 1.081,-0.268 l 0.002,0 0,-0.261 c 0.003,0.351 -0.733,0.459 -1.082,0.257 z"
           id="path28"
           inkscape:connector-curvature="0"
           style="fill:#72c0ab" /><path
           d="m 22.65,18.04 c -0.249,-0.144 -0.651,-0.144 -0.899,-0.002 -0.124,0.071 -0.185,0.165 -0.185,0.259 0,0.094 0.063,0.188 0.188,0.26 0.249,0.144 0.651,0.144 0.899,0.002 0.124,-0.071 0.185,-0.165 0.185,-0.259 -0.001,-0.094 -0.064,-0.188 -0.188,-0.26 z"
           id="path30"
           inkscape:connector-curvature="0"
           style="fill:#7bd6c4" /></g><g
         id="g32"><path
           d="M 20.046,13.05 14.722,5.972 C 14.719,5.968 14.715,5.964 14.712,5.96 14.378,5.525 13.975,5.232 13.526,5.096 10.963,4.325 8.687,8.345 8.25,11.15 c -0.429,2.751 0.4,5.853 2.697,5.749 0.397,-0.018 0.934,-0.218 0.841,-0.18 0.017,-0.007 3.528,-1.532 7.189,-3.128 l 1.41,0.808 0,2.05 1,0.584 0,-3.214 -1.341,-0.769 z"
           id="path34"
           inkscape:connector-curvature="0"
           style="fill:#f05a28" /><path
           d="M 15.413,7.471 C 15.251,6.853 15.009,6.35 14.712,5.96 14.378,5.525 13.975,5.232 13.526,5.096 10.963,4.325 8.687,8.345 8.25,11.15 c -0.429,2.751 0.4,5.853 2.697,5.749 0.847,-0.039 1.597,-0.513 2.2,-1.109 1.948,-1.927 2.963,-5.651 2.266,-8.319 z"
           id="path36"
           inkscape:connector-curvature="0"
           style="fill:#f29227" /><g
           id="g38"><path
             d="m 10.951,7.396 c 1.438,-1.42 3.02,-0.977 3.535,0.991 0.084,0.32 0.123,0.665 0.142,1.018 C 12.863,9.247 11.123,9.44 9.49,9.94 9.805,8.952 10.303,8.037 10.951,7.396 Z"
             id="path40"
             inkscape:connector-curvature="0"
             style="fill:#f05a28" /><path
             d="m 12.814,14.521 c -1.438,1.42 -3.02,0.977 -3.535,-0.991 -0.282,-1.08 -0.174,-2.39 0.21,-3.592 1.633,-0.499 3.374,-0.693 5.138,-0.535 0.1,1.814 -0.609,3.929 -1.813,5.118 z"
             id="path42"
             inkscape:connector-curvature="0"
             style="fill:#ff7344" /></g></g></g><path
       d="m 19.332,16.185 c -1.214,-0.701 -2.89,-0.971 -4.455,-0.809 -1.722,0.749 -2.958,1.286 -3.08,1.338 -0.001,0 -0.004,0.002 -0.01,0.004 0,0 0.004,-0.002 0.01,-0.004 0.002,-10e-4 -0.008,0.002 -0.028,0.008 -0.13,0.05 -0.264,0.09 -0.4,0.12 -1.022,1.096 -0.725,2.497 0.887,3.428 1.966,1.135 5.144,1.141 7.098,0.013 1.954,-1.128 1.944,-2.963 -0.022,-4.098 z"
       id="path44"
       inkscape:connector-curvature="0"
       style="fill:#225b49" /><path
       d="m 17.182,18.864 c -0.762,0.44 -2.001,0.438 -2.767,-0.005 -0.767,-0.443 -0.77,-1.158 -0.009,-1.598 0.762,-0.44 2.001,-0.438 2.767,0.005 0.767,0.443 0.771,1.158 0.009,1.598 z"
       id="path46"
       inkscape:connector-curvature="0"
       style="fill:#ff7344" /></g><metadata
     id="metadata48"><work
       rdf:about=""><format>image/svg+xml</format><type
         rdf:resource="http://purl.org/dc/dcmitype/StillImage" /><license
         rdf:resource="http://creativecommons.org/licenses/by/4.0/" /><attributionname>Jo Szczepanska</attributionname><attributionurl>http://www.toicon.com/icons/isometric_play</attributionurl></work><rdf:RDF><cc:Work
         rdf:about=""><dc:format>image/svg+xml</dc:format><dc:type
           rdf:resource="http://purl.org/dc/dcmitype/StillImage" /><dc:title>to play</dc:title></cc:Work></rdf:RDF></metadata></svg>