<?xml version="1.0" encoding="UTF-8" standalone="no"?>
<!-- Generator: Adobe Illustrator 18.0.0, SVG Export Plug-In . SVG Version: 6.00 Build 0)  -->

<svg
   xmlns:dc="http://purl.org/dc/elements/1.1/"
   xmlns:cc="http://creativecommons.org/ns#"
   xmlns:rdf="http://www.w3.org/1999/02/22-rdf-syntax-ns#"
   xmlns:svg="http://www.w3.org/2000/svg"
   xmlns="http://www.w3.org/2000/svg"
   xmlns:sodipodi="http://sodipodi.sourceforge.net/DTD/sodipodi-0.dtd"
   xmlns:inkscape="http://www.inkscape.org/namespaces/inkscape"
   version="1.1"
   x="0px"
   y="0px"
   viewBox="0 0 79 76"
   enable-background="new 0 0 32 32"
   xml:space="preserve"
   id="svg2"
   inkscape:version="0.91 r13725"
   sodipodi:docname="isometric_rewind.svg"
   width="79"
   height="76"
   inkscape:export-filename="/home/trobanga/Workspace/projects/audioOne/img/isometric_rewind.png"
   inkscape:export-xdpi="90"
   inkscape:export-ydpi="90"><defs
     id="defs26" /><sodipodi:namedview
     pagecolor="#ffffff"
     bordercolor="#666666"
     borderopacity="1"
     objecttolerance="10"
     gridtolerance="10"
     guidetolerance="10"
     inkscape:pageopacity="0"
     inkscape:pageshadow="2"
     inkscape:window-width="1256"
     inkscape:window-height="706"
     id="namedview24"
     showgrid="false"
     inkscape:zoom="2.6074563"
     inkscape:cx="16.348678"
     inkscape:cy="16.723242"
     inkscape:window-x="399"
     inkscape:window-y="361"
     inkscape:window-maximized="0"
     inkscape:current-layer="svg2" /><title
     property="dc:title"
     id="title4">to rewind</title><desc
     property="dc:description"
     id="desc6">An icon for &quot;rewind&quot; from the Isometric series on to [icon]. Downloaded from http://www.toicon.com/icons/isometric_rewind by 198.23.103.67 on 2015-04-03. Licensed CC-BY, see http://toicon.com/license/ for details.</desc><g
     id="LABELS"
     transform="translate(0,44)" /><g
     id="DESIGNS"
     transform="matrix(2.118587,0,0,2.118587,6.3465095,6.5923731)"><g
       id="g10"><polygon
         points="15.963,25.899 28,18.928 28,14.928 15.963,21.899 4,14.971 4,18.971 "
         id="polygon12"
         style="fill:#f29227" /><polygon
         points="11.046,12.495 11.046,10.89 4,14.971 15.963,21.899 28,14.928 16.037,8 12.263,10.186 21.204,11.584 21.204,13.167 23.87,13.584 23.87,16.084 16.464,20.36 15.158,17.574 13.797,18.36 "
         id="polygon14"
         style="fill:#f2d76c" /><g
         id="g16"><polygon
           points="21.204,11.584 21.204,13.167 23.87,13.584 23.87,16.084 16.464,20.36 15.158,17.574 13.797,18.36 11.046,12.495 11.046,9.995 "
           id="polygon18"
           style="fill:#ff7344" /><path
           d="m 21.204,11.584 -2.158,1.246 4.824,0.754 -7.406,4.276 -1.307,-2.785 -1.36,0.785 C 11.434,10.822 12.313,12.696 11.046,9.996 l 10.158,1.588 z"
           id="path20"
           inkscape:connector-curvature="0"
           style="fill:#f29227" /></g></g></g><metadata
     id="metadata22"><work
       rdf:about=""><format>image/svg+xml</format><type
         rdf:resource="http://purl.org/dc/dcmitype/StillImage" /><license
         rdf:resource="http://creativecommons.org/licenses/by/4.0/" /><attributionname>Jo Szczepanska</attributionname><attributionurl>http://www.toicon.com/icons/isometric_rewind</attributionurl></work><rdf:RDF><cc:Work
         rdf:about=""><dc:format>image/svg+xml</dc:format><dc:type
           rdf:resource="http://purl.org/dc/dcmitype/StillImage" /><dc:title>to rewind</dc:title></cc:Work></rdf:RDF></metadata></svg>