<?xml version="1.0" encoding="UTF-8" standalone="no"?>
<!-- Generator: Adobe Illustrator 18.0.0, SVG Export Plug-In . SVG Version: 6.00 Build 0)  -->

<svg
   xmlns:dc="http://purl.org/dc/elements/1.1/"
   xmlns:cc="http://creativecommons.org/ns#"
   xmlns:rdf="http://www.w3.org/1999/02/22-rdf-syntax-ns#"
   xmlns:svg="http://www.w3.org/2000/svg"
   xmlns="http://www.w3.org/2000/svg"
   xmlns:sodipodi="http://sodipodi.sourceforge.net/DTD/sodipodi-0.dtd"
   xmlns:inkscape="http://www.inkscape.org/namespaces/inkscape"
   version="1.1"
   x="0px"
   y="0px"
   viewBox="0 0 79 76"
   enable-background="new 0 0 32 32"
   xml:space="preserve"
   id="svg2"
   inkscape:version="0.91 r13725"
   sodipodi:docname="isometric_mute.svg"
   width="79"
   height="76"
   inkscape:export-filename="/home/trobanga/Workspace/projects/audioOne/img/isometric_mute.png"
   inkscape:export-xdpi="90"
   inkscape:export-ydpi="90"><defs
     id="defs26" /><sodipodi:namedview
     pagecolor="#ffffff"
     bordercolor="#666666"
     borderopacity="1"
     objecttolerance="10"
     gridtolerance="10"
     guidetolerance="10"
     inkscape:pageopacity="0"
     inkscape:pageshadow="2"
     inkscape:window-width="1249"
     inkscape:window-height="742"
     id="namedview24"
     showgrid="false"
     inkscape:zoom="2.6074563"
     inkscape:cx="-56.682407"
     inkscape:cy="46.564238"
     inkscape:window-x="375"
     inkscape:window-y="257"
     inkscape:window-maximized="0"
     inkscape:current-layer="svg2" /><title
     property="dc:title"
     id="title4">to mute</title><desc
     property="dc:description"
     id="desc6">An icon for &quot;mute&quot; from the Isometric series on to [icon]. Downloaded from http://www.toicon.com/icons/isometric_mute by 198.23.103.67 on 2015-04-03. Licensed CC-BY, see http://toicon.com/license/ for details.</desc><g
     id="LABELS"
     transform="translate(0,44)" /><g
     id="DESIGNS"
     transform="matrix(1.8280899,0,0,1.8280899,11.346318,8.820668)"><g
       id="g10"><path
         d="m 21.711,5.051 0,-0.023 c -1.555,0 -2.944,0.01 -3.339,0.039 -2.016,0.148 -3.647,1.837 -4.706,4.246 -1.483,1.401 -3.091,2.959 -4.367,4.207 C 8.381,11.59 6.8,11.635 5.872,13.233 4.963,14.8 4.958,17.333 5.862,18.89 6.84,20.576 8.518,20.455 9.389,18.358 l 4.079,4.056 c 0.199,0.483 1.094,4.528 4.564,4.532 0.599,10e-4 1.81,0.008 3.123,0.017 C 19.729,26.759 18.339,25.709 17.251,23.81 14.803,19.537 14.815,12.588 17.279,8.289 18.504,6.148 20.107,5.068 21.711,5.051 Z"
         id="path12"
         inkscape:connector-curvature="0"
         style="fill:#ff7344" /></g><g
       id="g14"><path
         d="m 26.172,8.24 c -2.448,-4.273 -6.431,-4.251 -8.895,0.049 -2.464,4.299 -2.476,11.248 -0.028,15.521 1.224,2.136 2.832,3.199 4.441,3.19 1.609,-0.009 3.221,-1.089 4.453,-3.239 2.465,-4.299 2.477,-11.248 0.029,-15.521 z"
         id="path16"
         inkscape:connector-curvature="0"
         style="fill:#f05a28" /></g><path
       d="m 24.685,10.835 c 0.097,0.169 0.168,0.362 0.253,0.542 l -7.154,7.208 c -1.566,-7.439 3.779,-13.196 6.901,-7.75 z"
       id="path18"
       inkscape:connector-curvature="0"
       style="fill:#f8f7c5" /><path
       d="m 18.755,21.244 7.004,-7.056 c 1.057,7.292 -4.048,12.152 -7.004,7.056 z"
       id="path20"
       inkscape:connector-curvature="0"
       style="fill:#f8f7c5" /></g><metadata
     id="metadata22"><work
       rdf:about=""><format>image/svg+xml</format><type
         rdf:resource="http://purl.org/dc/dcmitype/StillImage" /><license
         rdf:resource="http://creativecommons.org/licenses/by/4.0/" /><attributionname>Jo Szczepanska</attributionname><attributionurl>http://www.toicon.com/icons/isometric_mute</attributionurl></work><rdf:RDF><cc:Work
         rdf:about=""><dc:format>image/svg+xml</dc:format><dc:type
           rdf:resource="http://purl.org/dc/dcmitype/StillImage" /><dc:title>to mute</dc:title></cc:Work></rdf:RDF></metadata></svg>